<?xml version="1.0" standalone="no"?>
<!DOCTYPE svg PUBLIC "-//W3C//DTD SVG 20010904//EN"
 "http://www.w3.org/TR/2001/REC-SVG-20010904/DTD/svg10.dtd">
<svg version="1.0" xmlns="http://www.w3.org/2000/svg"
 width="500.000000pt" height="500.000000pt" viewBox="0 0 500.000000 500.000000"
 preserveAspectRatio="xMidYMid meet">

<g transform="translate(0.000000,500.000000) scale(0.100000,-0.100000)"
fill="#000000" stroke="none">
<path d="M0 2500 l0 -2500 2500 0 2500 0 0 2500 0 2500 -2500 0 -2500 0 0
-2500z m4288 128 l2 -1818 -1815 0 -1815 0 0 1820 0 1820 1813 -2 1812 -3 3
-1817z"/>
<path d="M740 2625 l0 -1735 1730 0 1730 0 0 1735 0 1735 -1730 0 -1730 0 0
-1735z m2055 1400 c60 -36 117 -73 126 -82 16 -17 18 -61 21 -548 l3 -530 -28
-47 c-30 -52 -44 -61 -376 -253 -242 -139 -257 -146 -290 -134 -56 22 -224
135 -232 157 -5 13 -9 256 -9 540 0 483 2 520 19 558 10 23 32 50 47 61 62 42
211 123 228 123 34 0 9 -25 -72 -73 -46 -27 -80 -52 -77 -56 2 -5 37 -28 76
-52 l72 -43 46 25 c103 57 481 276 487 282 3 2 -31 25 -75 51 -55 32 -84 44
-97 39 -11 -4 -56 -29 -102 -56 -75 -44 -102 -51 -102 -27 0 10 199 130 216
130 5 0 59 -29 119 -65z m-87 -48 c17 -13 15 -52 -3 -67 -23 -19 -92 -16 -115
5 -25 22 -25 37 -2 57 30 28 88 30 120 5z m-278 -51 c0 -16 -42 -46 -65 -46
-25 0 -17 28 13 44 34 19 52 20 52 2z m-372 -1796 c54 -33 72 -74 72 -162 l0
-78 -50 0 -50 0 0 64 c0 45 -5 69 -16 80 -38 38 -64 10 -64 -68 0 -61 0 -61
90 -186 l90 -124 0 -84 c0 -93 -12 -125 -60 -166 -45 -38 -125 -37 -171 1 -43
36 -59 79 -59 158 l0 65 55 0 55 0 0 -63 c0 -61 11 -87 36 -87 27 0 44 32 44
83 0 50 -4 58 -95 182 l-94 130 -1 80 c0 94 17 138 69 172 43 29 104 30 149 3z
m224 -317 l3 -328 70 -5 70 -5 3 -47 3 -48 -125 0 -126 0 0 373 c0 206 3 377
7 380 3 4 26 7 50 7 l43 0 2 -327z m443 272 l0 -50 -72 -3 -73 -3 0 -74 0 -75
70 0 70 0 0 -50 0 -50 -70 0 -70 0 0 -150 0 -149 73 -3 72 -3 0 -45 0 -45
-122 -3 -123 -3 0 374 c0 206 3 377 7 381 4 3 59 5 122 4 l116 -3 0 -50z m439
46 c3 -5 18 -96 33 -202 19 -136 29 -185 35 -168 4 13 19 100 32 193 14 93 29
173 34 178 5 5 44 8 88 6 l79 -3 0 -375 0 -375 -47 -3 -48 -3 -1 263 c0 167
-4 256 -9 243 -6 -11 -21 -96 -35 -190 -14 -93 -30 -203 -37 -242 l-12 -73
-47 0 c-37 0 -49 4 -53 18 -3 9 -17 98 -31 197 -52 355 -53 356 -54 53 l-1
-268 -50 0 -50 0 0 380 0 380 84 0 c47 0 87 -4 90 -9z m-1924 -126 l0 -125 45
0 45 0 0 125 0 125 50 0 50 0 -2 -372 -3 -373 -47 -3 -48 -3 -2 198 -3 198
-42 3 -43 3 0 -200 0 -201 -50 0 -50 0 0 375 0 375 50 0 50 0 0 -125z m340
-180 c0 -292 1 -306 20 -325 11 -11 27 -20 35 -20 8 0 24 9 35 20 19 19 20 33
20 325 l0 305 50 0 51 0 -3 -324 c-3 -311 -4 -326 -24 -353 -39 -52 -83 -75
-137 -70 -51 4 -88 26 -121 71 -20 26 -21 42 -24 352 l-3 324 51 0 50 0 0
-305z m2144 290 c44 -21 75 -65 86 -123 13 -70 1 -491 -15 -522 -35 -66 -86
-90 -196 -90 l-79 0 0 375 0 375 86 0 c57 0 97 -5 118 -15z"/>
<path d="M2690 3824 c-311 -181 -355 -207 -378 -221 -13 -8 -32 -28 -42 -46
-19 -31 -20 -54 -20 -560 0 -452 2 -528 15 -533 8 -3 65 23 127 59 510 293
471 268 498 323 19 39 20 59 20 535 0 272 -3 504 -6 517 -4 14 -14 22 -28 22
-11 0 -95 -43 -186 -96z m178 -436 l2 -396 -47 -29 c-181 -111 -500 -293 -515
-293 -12 0 -16 33 -21 212 -11 343 -9 562 6 579 6 9 109 71 227 139 118 68
240 138 270 157 30 18 59 32 65 30 6 -2 11 -141 13 -399z m-208 344 c0 -12
-25 -32 -75 -60 -82 -46 -95 -50 -95 -27 0 13 142 105 162 105 5 0 8 -8 8 -18z
m-10 -943 c26 -48 -23 -123 -76 -117 -25 3 -29 8 -32 39 -6 70 80 132 108 78z"/>
<path d="M2720 3674 c-52 -31 -124 -73 -160 -94 -36 -21 -104 -61 -152 -90
l-88 -52 0 -360 c0 -337 1 -360 17 -354 10 4 124 69 255 144 l237 137 1 363
c0 199 -3 362 -7 362 -5 0 -51 -25 -103 -56z m37 -210 c24 -26 43 -51 43 -57
0 -20 -62 -107 -76 -107 -11 0 -14 -21 -14 -101 0 -55 -4 -109 -10 -119 -13
-25 -218 -143 -236 -136 -11 4 -14 26 -14 94 l0 89 -41 6 c-23 3 -46 10 -51
15 -7 7 2 40 26 99 41 98 47 106 95 146 27 22 39 26 66 21 30 -5 35 -3 51 28
21 42 16 38 61 53 53 20 52 20 100 -31z"/>
<path d="M2663 3457 c-12 -7 -32 -28 -45 -47 -20 -29 -30 -35 -61 -36 -22 0
-50 -10 -68 -23 -27 -20 -71 -101 -85 -158 -8 -32 19 -31 34 2 6 14 18 25 27
25 12 0 15 -18 15 -109 0 -61 3 -112 8 -114 4 -3 45 17 92 43 l85 49 5 128 c5
126 5 128 28 128 14 0 32 12 44 28 l20 27 -27 35 c-28 38 -38 41 -72 22z"/>
<path d="M2593 2758 c-16 -21 -23 -47 -13 -53 10 -6 40 33 40 52 0 17 -15 17
-27 1z"/>
<path d="M2076 3690 c-44 -53 -37 -72 52 -124 86 -50 92 -52 92 -32 0 7 11 30
25 50 l25 36 -72 46 c-39 25 -76 48 -83 50 -7 3 -24 -9 -39 -26z"/>
<path d="M2046 3563 c-8 -8 -8 -684 1 -846 l6 -127 75 -45 c41 -25 76 -45 78
-45 2 0 3 219 2 486 l-3 487 -76 48 c-42 26 -80 45 -83 42z m84 -189 c0 -38
-3 -45 -17 -42 -22 4 -30 62 -13 84 19 22 30 7 30 -42z m-2 -151 c-3 -51 -24
-69 -34 -29 -9 35 3 76 22 76 12 0 14 -10 12 -47z"/>
<path d="M2620 3945 c0 -12 7 -15 25 -13 14 2 26 8 26 13 0 6 -12 11 -26 13
-18 2 -25 -1 -25 -13z"/>
<path d="M3625 2017 c-3 -7 -4 -129 -3 -272 l3 -260 30 2 c53 4 55 15 55 274
0 234 0 238 -22 253 -27 19 -57 21 -63 3z"/>
</g>
</svg>
